<svg width="48" height="48" viewBox="0 0 48 48" fill="none" xmlns="http://www.w3.org/2000/svg">
<g clip-path="url(#clip0_4549_21399)">
<circle cx="24" cy="24" r="24" fill="#FF003D"/>
<path d="M24.4997 37.125L24.3704 36.9311C23.4732 35.5853 23.0246 34.9124 22.4318 34.4252C21.9071 33.9939 21.3025 33.6703 20.6526 33.4729C19.9185 33.25 19.1097 33.25 17.4922 33.25H15.7163C14.2695 33.25 13.5461 33.25 12.9935 32.9684C12.5074 32.7208 12.1122 32.3256 11.8646 31.8395C11.583 31.2869 11.583 30.5635 11.583 29.1167V18.0083C11.583 16.5615 11.583 15.8381 11.8646 15.2855C12.1122 14.7994 12.5074 14.4042 12.9935 14.1566C13.5461 13.875 14.2695 13.875 15.7163 13.875H16.233C19.1266 13.875 20.5734 13.875 21.6786 14.4381C22.6508 14.9335 23.4412 15.7239 23.9365 16.6961C24.4997 17.8013 24.4997 19.2481 24.4997 22.1417M24.4997 37.125V22.1417M24.4997 37.125L24.629 36.9311C25.5262 35.5853 25.9748 34.9124 26.5675 34.4252C27.0922 33.9939 27.6968 33.6703 28.3468 33.4729C29.0808 33.25 29.8897 33.25 31.5072 33.25H33.283C34.7298 33.25 35.4533 33.25 36.0058 32.9684C36.4919 32.7208 36.8871 32.3256 37.1348 31.8395C37.4163 31.2869 37.4163 30.5635 37.4163 29.1167V18.0083C37.4163 16.5615 37.4163 15.8381 37.1348 15.2855C36.8871 14.7994 36.4919 14.4042 36.0058 14.1566C35.4533 13.875 34.7298 13.875 33.283 13.875H32.7663C29.8728 13.875 28.426 13.875 27.3207 14.4381C26.3486 14.9335 25.5582 15.7239 25.0628 16.6961C24.4997 17.8013 24.4997 19.2481 24.4997 22.1417" stroke="white" stroke-width="2.5" stroke-linecap="round" stroke-linejoin="round"/>
</g>
<defs>
<clipPath id="clip0_4549_21399">
<rect width="48" height="48" fill="white"/>
</clipPath>
</defs>
</svg>
